<?xml version="1.0" standalone="no"?>
<!DOCTYPE svg PUBLIC "-//W3C//DTD SVG 20010904//EN"
 "http://www.w3.org/TR/2001/REC-SVG-20010904/DTD/svg10.dtd">
<svg version="1.0" xmlns="http://www.w3.org/2000/svg"
 width="1440.000000pt" height="1080.000000pt" viewBox="0 0 1440.000000 1080.000000"
 preserveAspectRatio="xMidYMid meet">
<metadata>
Created by potrace 1.16, written by Peter Selinger 2001-2019
</metadata>
<g transform="translate(0.000000,1080.000000) scale(0.100000,-0.100000)"
fill="#000000" stroke="none">
<path d="M4574 10260 c-31 -12 -72 -65 -84 -108 -13 -48 -13 -176 1 -225 17
-61 66 -108 119 -114 89 -9 146 51 159 167 9 78 -2 170 -26 216 -31 60 -108
89 -169 64z m106 -62 c11 -13 24 -34 28 -48 9 -32 9 -188 0 -220 -12 -41 -45
-70 -82 -70 -48 0 -75 34 -89 114 -14 85 1 187 34 222 30 31 81 32 109 2z"/>
<path d="M4915 10256 c-32 -9 -41 -17 -43 -39 -4 -32 -5 -31 41 -12 47 19 107
19 134 0 27 -19 39 -75 23 -106 -7 -12 -57 -71 -111 -130 -59 -64 -99 -116
-99 -128 0 -20 5 -21 140 -21 l140 0 0 25 c0 24 -1 24 -102 27 l-103 3 86 90
c47 50 91 101 98 113 18 33 16 106 -4 135 -32 49 -118 68 -200 43z"/>
<path d="M5334 10256 c-68 -31 -100 -114 -92 -245 8 -131 56 -196 147 -196
100 0 145 70 145 225 0 147 -40 216 -131 226 -21 2 -52 -2 -69 -10z m95 -46
c31 -16 51 -83 51 -170 0 -87 -20 -154 -51 -170 -49 -27 -96 -5 -119 55 -14
38 -14 193 0 231 23 59 70 81 119 54z"/>
<path d="M2460 10040 l0 -220 140 0 140 0 0 25 0 25 -110 0 -110 0 0 80 0 80
100 0 100 0 0 25 0 25 -100 0 -100 0 0 65 0 65 105 0 105 0 0 25 0 25 -135 0
-135 0 0 -220z"/>
<path d="M4155 10251 c-24 -5 -31 -12 -33 -34 -3 -24 0 -28 15 -23 10 3 35 8
56 12 l37 6 0 -171 0 -171 -50 0 c-47 0 -50 -2 -50 -25 l0 -25 125 0 125 0 0
25 c0 23 -3 25 -50 25 l-50 0 0 195 0 195 -47 -1 c-27 -1 -61 -4 -78 -8z"/>
<path d="M2950 10149 c-13 -6 -33 -17 -42 -26 -17 -15 -18 -15 -18 5 0 17 -6
22 -25 22 l-25 0 0 -165 0 -165 25 0 25 0 0 114 c0 109 1 116 26 145 21 25 33
31 65 31 35 0 39 3 39 25 0 28 -24 32 -70 14z"/>
<path d="M3173 10145 c-18 -8 -33 -19 -33 -25 0 -5 -4 -10 -10 -10 -5 0 -10 9
-10 20 0 15 -7 20 -25 20 l-25 0 0 -165 0 -165 25 0 25 0 0 100 c0 148 23 190
104 190 32 0 36 3 36 25 0 21 -5 25 -27 25 -16 -1 -43 -7 -60 -15z"/>
<path d="M3383 10153 c-39 -8 -80 -58 -93 -114 -17 -70 0 -147 41 -188 50 -50
158 -51 202 -3 67 74 57 239 -17 287 -27 18 -94 27 -133 18z m106 -62 c17 -17
41 -78 41 -106 0 -5 -5 -27 -11 -48 -15 -54 -41 -77 -88 -77 -32 0 -44 6 -65
31 -22 26 -26 40 -26 94 0 54 4 68 26 94 21 25 33 31 65 31 25 0 46 -7 58 -19z"/>
<path d="M3773 10145 c-18 -8 -33 -19 -33 -25 0 -5 -4 -10 -10 -10 -5 0 -10 9
-10 20 0 15 -7 20 -25 20 l-25 0 0 -165 0 -165 25 0 25 0 0 100 c0 148 23 190
104 190 32 0 36 3 36 25 0 21 -5 25 -27 25 -16 -1 -43 -7 -60 -15z"/>
<path d="M4740 8559 c0 -35 -2 -40 -17 -34 -66 28 -103 3 -103 -70 0 -69 41
-101 93 -74 16 9 22 9 25 0 2 -6 8 -11 13 -11 5 0 9 52 9 115 0 70 -4 115 -10
115 -5 0 -10 -18 -10 -41z"/>
<path d="M2439 8483 c20 -77 32 -109 43 -111 17 -3 25 16 49 124 7 29 15 51
19 49 3 -2 15 -41 25 -86 18 -77 38 -107 54 -81 11 19 54 203 48 209 -14 13
-26 -13 -42 -92 -10 -47 -21 -83 -24 -79 -3 3 -15 42 -27 87 -28 115 -46 115
-72 1 -12 -47 -23 -88 -25 -91 -3 -2 -15 37 -27 87 -13 54 -27 90 -35 90 -9 0
-6 -28 14 -107z"/>
<path d="M2933 8533 c-25 -9 -13 -22 16 -17 29 6 71 -9 71 -26 0 -6 -15 -10
-33 -10 -46 0 -77 -24 -77 -61 0 -42 40 -60 81 -37 24 14 29 15 29 3 0 -8 5
-15 10 -15 6 0 10 28 10 65 0 52 -4 69 -20 85 -19 19 -59 25 -87 13z"/>
<path d="M3518 8533 c-34 -9 -18 -24 17 -17 22 4 41 2 50 -6 24 -20 17 -30
-20 -30 -62 0 -97 -57 -57 -93 21 -19 45 -21 73 -7 13 7 19 7 19 0 0 -5 7 -10
15 -10 12 0 15 13 15 60 0 88 -38 123 -112 103z"/>
<path d="M3690 8425 c0 -70 4 -115 10 -115 6 0 10 18 10 40 0 38 12 52 25 30
11 -18 45 -11 70 15 17 16 25 35 25 60 0 60 -63 106 -99 73 -11 -10 -14 -10
-18 0 -14 38 -23 -2 -23 -103z"/>
<path d="M3880 8425 c0 -70 4 -115 10 -115 6 0 10 18 10 40 0 38 12 52 25 30
11 -18 45 -11 70 15 17 16 25 35 25 60 0 60 -63 106 -99 73 -11 -10 -14 -10
-18 0 -14 38 -23 -2 -23 -103z"/>
</g>
</svg>
